<?xml version="1.0" encoding="utf-8"?>
<!-- Generator: Adobe Illustrator 16.0.0, SVG Export Plug-In . SVG Version: 6.00 Build 0)  -->
<!DOCTYPE svg PUBLIC "-//W3C//DTD SVG 1.1//EN" "http://www.w3.org/Graphics/SVG/1.1/DTD/svg11.dtd">
<svg version="1.1" id="Layer_1" xmlns="http://www.w3.org/2000/svg" xmlns:xlink="http://www.w3.org/1999/xlink" x="0px" y="0px"
	 width="150.875px" height="19.25px" viewBox="-2.875 -3.95 150.875 19.25" enable-background="new -2.875 -3.95 150.875 19.25"
	 xml:space="preserve">
<path fill="none" d="M0.072,21.672c0-7.2,0-14.4,0-21.6c48.023,0,96.046,0,144.071,0c0,7.198,0,14.398,0,21.6
	C96.118,21.672,48.095,21.672,0.072,21.672z M10.61,2.592c0,3.145,0,6.243,0,9.343c0.765,0,1.504,0,2.278,0c0-2.236,0-4.456,0-6.707
	c0.051,0.046,0.074,0.058,0.082,0.074c0.646,1.533,1.287,3.068,1.94,4.598c0.044,0.104,0.172,0.234,0.269,0.241
	c0.394,0.027,0.792,0.021,1.187,0.004c0.081-0.003,0.201-0.08,0.232-0.151c0.404-0.948,0.792-1.903,1.19-2.855
	c0.264-0.632,0.536-1.261,0.804-1.891c0.021,0.004,0.042,0.009,0.063,0.013c0,2.222,0,4.442,0,6.668c0.782,0,1.529,0,2.269,0
	c0-3.123,0-6.222,0-9.322c-1.033,0-2.039,0-3.05,0c-0.701,1.656-1.399,3.305-2.112,4.985c-0.158-0.371-0.293-0.682-0.424-0.994
	c-0.53-1.266-1.055-2.532-1.594-3.794c-0.04-0.092-0.177-0.199-0.271-0.2C12.526,2.586,11.58,2.592,10.61,2.592z M33.289,2.593
	c0,3.144,0,6.242,0,9.342c0.789,0,1.552,0,2.354,0c0-1.173,0-2.328,0-3.479c0.382,0,0.729-0.028,1.069,0.006
	c0.662,0.064,1.015,0.537,1.284,1.076c0.358,0.715,0.685,1.444,1.045,2.16c0.057,0.11,0.214,0.24,0.328,0.243
	c0.778,0.021,1.557,0.012,2.345,0.012c-0.012-0.063-0.011-0.111-0.031-0.151c-0.43-0.864-0.837-1.742-1.303-2.589
	c-0.362-0.658-0.68-1.385-1.586-1.647c0.174-0.072,0.277-0.096,0.355-0.151c0.3-0.218,0.632-0.407,0.877-0.678
	c0.474-0.521,0.559-1.185,0.502-1.857c-0.062-0.725-0.349-1.332-0.992-1.743c-0.587-0.376-1.256-0.498-1.913-0.523
	C36.189,2.555,34.75,2.593,33.289,2.593z M32.014,11.948c-0.038-0.117-0.067-0.22-0.103-0.317c-0.713-1.936-1.43-3.867-2.141-5.802
	c-0.355-0.969-0.7-1.939-1.057-2.906c-0.074-0.2-0.162-0.354-0.451-0.341c-0.743,0.031-1.488,0.027-2.231,0.001
	c-0.26-0.009-0.364,0.104-0.438,0.304c-0.397,1.076-0.791,2.155-1.19,3.231c-0.562,1.516-1.13,3.028-1.69,4.545
	c-0.155,0.419-0.292,0.844-0.441,1.278c0.829,0,1.608,0,2.396,0c0.177-0.502,0.342-1.002,0.536-1.489
	c0.039-0.099,0.184-0.217,0.282-0.219c1.104-0.015,2.208-0.006,3.311-0.013c0.192-0.001,0.258,0.073,0.314,0.253
	c0.156,0.498,0.344,0.986,0.518,1.475C30.425,11.948,31.192,11.948,32.014,11.948z M1.224,9.571c0,0.563,0.009,1.128-0.005,1.69
	c-0.005,0.21,0.09,0.275,0.27,0.336c1.43,0.48,2.89,0.714,4.394,0.492c0.654-0.097,1.268-0.3,1.783-0.771
	c0.559-0.511,0.749-1.16,0.821-1.859C8.551,8.84,8.47,8.224,8.14,7.68C7.704,6.961,6.966,6.69,6.21,6.486
	C5.488,6.291,4.748,6.16,4.024,5.969C3.821,5.915,3.588,5.792,3.473,5.627C3.09,5.081,3.399,4.353,4.096,4.273
	C4.744,4.2,5.419,4.218,6.064,4.314C6.668,4.404,7.248,4.651,7.84,4.83c0-0.628,0-1.264,0-1.892
	C7.816,2.918,7.802,2.895,7.783,2.891c-1.384-0.352-2.785-0.599-4.21-0.356C2.75,2.673,1.977,2.99,1.564,3.804
	C1.397,4.132,1.242,4.487,1.188,4.846C1.057,5.719,1.185,6.553,1.85,7.206C2.333,7.682,2.956,7.899,3.6,8.064
	C4.268,8.237,4.947,8.38,5.597,8.605c0.484,0.168,0.64,0.469,0.59,0.929c-0.046,0.422-0.33,0.638-0.716,0.771
	c-0.777,0.266-1.549,0.146-2.302-0.055C2.517,10.075,1.889,9.808,1.224,9.571z M103.947,11.88c0.773-3.097,1.544-6.174,2.318-9.271
	c-0.434,0-0.849,0-1.272,0c-0.638,2.574-1.272,5.142-1.923,7.76c-0.051-0.118-0.092-0.189-0.109-0.267
	c-0.178-0.74-0.343-1.482-0.527-2.223c-0.42-1.682-0.846-3.362-1.283-5.04c-0.024-0.099-0.164-0.228-0.26-0.235
	c-0.32-0.028-0.647-0.028-0.97,0c-0.098,0.009-0.239,0.132-0.267,0.229c-0.191,0.7-0.361,1.407-0.534,2.111
	c-0.332,1.354-0.658,2.711-0.993,4.063c-0.107,0.439-0.234,0.875-0.378,1.401c-0.667-2.667-1.31-5.238-1.952-7.805
	c-0.43,0-0.835,0-1.26,0c0.775,3.104,1.548,6.188,2.32,9.274c0.293,0,0.545,0,0.795,0c0.759,0,0.769,0.002,0.951-0.728
	c0.424-1.704,0.838-3.412,1.26-5.118c0.171-0.695,0.347-1.391,0.521-2.085c0.209,0.637,0.347,1.276,0.503,1.912
	c0.471,1.924,0.952,3.844,1.414,5.769c0.049,0.201,0.122,0.255,0.305,0.252C103.037,11.875,103.469,11.88,103.947,11.88z
	 M91.59,10.219c-0.023,0.003-0.046,0.006-0.068,0.01c-0.676-1.304-1.355-2.605-2.029-3.912c-0.604-1.173-1.199-2.351-1.805-3.521
	c-0.043-0.081-0.136-0.19-0.207-0.192c-0.547-0.016-1.094-0.009-1.629-0.009c0,3.126,0,6.201,0,9.266c0.435,0,0.838,0,1.277,0
	c0-2.551,0-5.079,0-7.711c0.729,1.399,1.407,2.702,2.08,4.009c0.604,1.173,1.199,2.351,1.805,3.521
	c0.043,0.081,0.137,0.19,0.209,0.192c0.545,0.016,1.092,0.009,1.627,0.009c0-3.126,0-6.201,0-9.266c-0.434,0-0.836,0-1.26,0
	C91.59,5.162,91.59,7.69,91.59,10.219z M50.022,2.616c-2.862,0-5.696,0-8.522,0c0,0.604,0,1.185,0,1.787c1.031,0,2.034,0,3.073,0
	c0,2.524,0,5.022,0,7.521c0.809,0,1.58,0,2.388,0c0-2.523,0-5.021,0-7.545c1.04,0,2.043,0,3.062,0
	C50.022,3.784,50.022,3.213,50.022,2.616z M83.923,7.266c-0.063-0.442-0.114-0.889-0.188-1.331C83.313,3.398,81.027,1.982,78.5,2.58
	c-1.564,0.37-2.484,1.399-2.938,2.855c-0.354,1.131-0.345,2.299-0.051,3.467c0.249,0.99,0.744,1.8,1.561,2.409
	c0.977,0.729,2.072,0.879,3.257,0.723c1.196-0.158,2.092-0.764,2.754-1.732C83.701,9.392,83.863,8.348,83.923,7.266z M116.008,7.066
	c-0.035-0.257-0.084-0.701-0.162-1.143c-0.471-2.62-2.726-3.895-5.174-3.369c-1.563,0.334-2.513,1.367-2.988,2.845
	c-0.317,0.982-0.349,2.005-0.179,3.021c0.147,0.879,0.466,1.693,1.088,2.363c1.046,1.125,2.341,1.451,3.831,1.251
	c1.234-0.165,2.143-0.786,2.811-1.809C115.824,9.323,115.964,8.306,116.008,7.066z M117.96,2.593c0,3.118,0,6.193,0,9.27
	c0.429,0,0.832,0,1.272,0c0-1.293,0-2.567,0-3.869c0.578,0,1.117-0.033,1.65,0.014c0.29,0.026,0.62,0.128,0.838,0.309
	c0.297,0.246,0.553,0.573,0.739,0.914c0.438,0.794,0.821,1.618,1.235,2.427c0.046,0.09,0.145,0.21,0.225,0.215
	c0.387,0.021,0.775,0.01,1.208,0.01c-0.448-0.903-0.87-1.758-1.297-2.61c-0.067-0.137-0.159-0.262-0.229-0.396
	c-0.273-0.539-0.668-0.966-1.201-1.301c0.107-0.047,0.201-0.086,0.295-0.128c1.343-0.602,1.509-2.516,0.849-3.662
	c-0.497-0.863-1.354-1.12-2.254-1.174C120.191,2.544,119.088,2.593,117.96,2.593z M128.093,11.863c0-1.484,0-2.94,0-4.506
	c0.316,0.355,0.554,0.648,0.816,0.914c1.14,1.15,2.286,2.294,3.434,3.438c0.072,0.07,0.171,0.16,0.259,0.163
	c0.496,0.016,0.991,0.008,1.528,0.008c-1.663-1.662-3.28-3.28-4.921-4.919c1.514-1.45,2.996-2.874,4.555-4.368
	c-0.572,0-1.025-0.01-1.479,0.008c-0.102,0.004-0.217,0.083-0.295,0.159c-0.946,0.915-1.885,1.839-2.831,2.752
	c-0.335,0.323-0.692,0.622-1.091,0.979c0-1.34,0-2.606,0-3.869c-0.44,0-0.854,0-1.26,0c0,3.095,0,6.161,0,9.244
	C127.229,11.863,127.633,11.863,128.093,11.863z M69.623,4.089c0-0.239-0.027-0.516,0.007-0.785
	c0.042-0.331-0.124-0.443-0.402-0.495c-0.519-0.096-1.036-0.204-1.556-0.293c-0.956-0.164-1.88-0.071-2.755,0.371
	C63.702,3.502,63.246,5.298,64,6.441c0.391,0.594,0.989,0.858,1.625,1.039c0.708,0.201,1.444,0.31,2.148,0.521
	c1.208,0.361,1.424,1.567,0.823,2.394c-0.393,0.539-1.023,0.646-1.638,0.688c-0.787,0.054-1.55-0.087-2.275-0.413
	c-0.312-0.142-0.629-0.271-0.966-0.413c0,0.211,0,0.379,0,0.547c0,0.715-0.002,0.723,0.695,0.934
	c1.275,0.386,2.552,0.487,3.871,0.156c1.933-0.484,2.338-2.605,1.543-3.942c-0.443-0.746-1.191-1.045-1.979-1.247
	c-0.646-0.166-1.308-0.271-1.951-0.447c-0.503-0.139-0.895-0.443-0.947-1.016c-0.048-0.525,0.054-1.005,0.521-1.342
	c0.649-0.47,1.392-0.534,2.131-0.395C68.284,3.633,68.943,3.887,69.623,4.089z M134.854,10.309c0,0.157,0,0.325,0,0.493
	c0,0.715-0.002,0.723,0.694,0.934c1.275,0.386,2.554,0.487,3.871,0.156c1.933-0.485,2.338-2.604,1.543-3.942
	c-0.442-0.746-1.19-1.046-1.979-1.247c-0.646-0.166-1.309-0.271-1.95-0.447c-0.503-0.139-0.896-0.443-0.946-1.016
	c-0.048-0.525,0.055-1.005,0.52-1.342c0.649-0.47,1.394-0.533,2.133-0.395c0.683,0.13,1.342,0.384,2.021,0.586
	c0-0.238-0.028-0.516,0.007-0.785c0.043-0.331-0.123-0.443-0.4-0.495c-0.52-0.096-1.036-0.204-1.557-0.293
	c-0.955-0.164-1.881-0.072-2.754,0.371c-1.217,0.615-1.673,2.411-0.918,3.554c0.393,0.594,0.989,0.858,1.625,1.039
	c0.709,0.201,1.44,0.318,2.149,0.521c0.7,0.198,1.114,0.727,1.127,1.334c0.017,0.735-0.322,1.309-0.915,1.527
	c-0.766,0.283-1.553,0.322-2.332,0.105C136.141,10.786,135.509,10.534,134.854,10.309z M50.395,2.592
	c0.224,0.567,0.441,1.099,0.644,1.635c0.923,2.444,1.841,4.891,2.763,7.334c0.078,0.207,0.177,0.367,0.459,0.326
	c0.247-0.035,0.506-0.033,0.754,0c0.289,0.038,0.405-0.118,0.487-0.341c0.162-0.439,0.312-0.884,0.479-1.322
	c0.743-1.948,1.492-3.895,2.237-5.842c0.224-0.586,0.441-1.175,0.671-1.79c-0.399,0-0.748-0.014-1.094,0.01
	c-0.094,0.007-0.229,0.109-0.263,0.199c-0.777,2.035-1.542,4.076-2.312,6.114c-0.175,0.464-0.359,0.924-0.559,1.436
	c-0.065-0.104-0.103-0.148-0.122-0.2c-0.304-0.823-0.603-1.649-0.909-2.474c-0.601-1.614-1.201-3.229-1.82-4.836
	c-0.043-0.112-0.232-0.224-0.364-0.237C51.126,2.568,50.799,2.592,50.395,2.592z M61.533,11.865c0-3.106,0-6.181,0-9.256
	c-0.429,0-0.832,0-1.251,0c0,3.093,0,6.165,0,9.256C60.705,11.865,61.108,11.865,61.533,11.865z M72.096,2.608
	c0,3.104,0,6.179,0,9.242c0.438,0,0.849,0,1.251,0c0-3.095,0-6.16,0-9.242C72.927,2.608,72.523,2.608,72.096,2.608z"/>
<g>
	<path fill="#3390d3" d="M10.61,2.592c0.97,0,1.917-0.006,2.863,0.01c0.093,0.001,0.231,0.108,0.271,0.2
		c0.539,1.262,1.064,2.528,1.594,3.794c0.131,0.313,0.266,0.623,0.424,0.994c0.712-1.682,1.411-3.329,2.112-4.985
		c1.012,0,2.017,0,3.05,0c0,3.102,0,6.199,0,9.322c-0.74,0-1.487,0-2.269,0c0-2.226,0-4.446,0-6.668
		c-0.021-0.004-0.042-0.009-0.063-0.013c-0.268,0.63-0.54,1.259-0.804,1.891c-0.397,0.952-0.786,1.907-1.19,2.855
		c-0.031,0.071-0.151,0.148-0.232,0.151c-0.395,0.017-0.792,0.023-1.187-0.004c-0.097-0.007-0.225-0.138-0.269-0.241
		c-0.653-1.528-1.294-3.063-1.94-4.598c-0.007-0.018-0.03-0.028-0.082-0.074c0,2.251,0,4.471,0,6.707c-0.774,0-1.513,0-2.278,0
		C10.61,8.835,10.61,5.736,10.61,2.592z"/>
	<path fill="#3390d3" d="M33.289,2.593c1.461,0,2.9-0.038,4.336,0.017c0.657,0.025,1.326,0.147,1.913,0.523
		c0.643,0.411,0.93,1.02,0.992,1.743c0.057,0.674-0.028,1.338-0.502,1.857c-0.245,0.271-0.578,0.46-0.877,0.678
		c-0.078,0.057-0.181,0.079-0.355,0.151c0.906,0.264,1.224,0.989,1.586,1.647c0.465,0.847,0.873,1.725,1.303,2.589
		c0.02,0.04,0.019,0.09,0.031,0.151c-0.789,0-1.567,0.011-2.345-0.012c-0.114-0.003-0.271-0.133-0.328-0.244
		c-0.36-0.715-0.687-1.444-1.045-2.159c-0.269-0.539-0.623-1.012-1.284-1.076c-0.34-0.034-0.687-0.006-1.069-0.006
		c0,1.151,0,2.308,0,3.479c-0.802,0-1.565,0-2.354,0C33.289,8.835,33.289,5.736,33.289,2.593z M35.639,4.287c0,0.459,0,0.84,0,1.222
		c0,0.39,0,0.78,0,1.187c0.505,0,0.96,0.021,1.413-0.005c0.634-0.032,0.979-0.306,1.084-0.898c0.109-0.613-0.017-1.303-0.851-1.399
		C36.758,4.33,36.224,4.323,35.639,4.287z"/>
	<path fill="#3390d3" d="M32.014,11.948c-0.821,0-1.588,0-2.385,0c-0.174-0.487-0.362-0.977-0.518-1.475
		c-0.056-0.18-0.122-0.254-0.314-0.253c-1.104,0.007-2.208-0.002-3.311,0.013c-0.098,0.002-0.243,0.12-0.282,0.219
		c-0.193,0.487-0.358,0.987-0.536,1.489c-0.789,0-1.567,0-2.396,0c0.149-0.436,0.287-0.859,0.441-1.278
		c0.561-1.517,1.128-3.029,1.69-4.545c0.399-1.076,0.792-2.155,1.19-3.231c0.074-0.2,0.178-0.313,0.438-0.304
		c0.743,0.026,1.488,0.03,2.231-0.001c0.289-0.013,0.377,0.141,0.451,0.341c0.356,0.967,0.701,1.938,1.057,2.906
		c0.711,1.935,1.428,3.866,2.141,5.802C31.947,11.729,31.976,11.83,32.014,11.948z M25.868,8.486c0.88,0,1.703,0,2.551,0
		c-0.417-1.21-0.827-2.402-1.272-3.696C26.696,6.092,26.285,7.281,25.868,8.486z"/>
	<path fill="#3390d3" d="M1.224,9.571c0.665,0.236,1.292,0.505,1.945,0.679c0.753,0.201,1.525,0.319,2.302,0.055
		c0.387-0.133,0.67-0.349,0.716-0.771c0.049-0.46-0.106-0.761-0.59-0.929C4.947,8.381,4.268,8.237,3.6,8.064
		C2.956,7.899,2.333,7.682,1.849,7.206c-0.665-0.653-0.792-1.487-0.662-2.36c0.054-0.358,0.21-0.714,0.376-1.042
		C1.977,2.99,2.75,2.673,3.573,2.533c1.425-0.241,2.826,0.006,4.21,0.356C7.802,2.895,7.816,2.918,7.84,2.939
		c0,0.628,0,1.264,0,1.892c-0.592-0.18-1.172-0.427-1.776-0.517C5.419,4.218,4.744,4.2,4.096,4.273
		C3.399,4.353,3.09,5.081,3.473,5.627c0.115,0.165,0.349,0.288,0.551,0.342C4.748,6.16,5.488,6.291,6.211,6.486
		C6.966,6.69,7.705,6.962,8.141,7.68c0.33,0.544,0.411,1.16,0.347,1.778c-0.072,0.699-0.263,1.35-0.821,1.859
		c-0.516,0.472-1.129,0.675-1.783,0.771C4.38,12.311,2.92,12.077,1.49,11.597c-0.18-0.061-0.275-0.126-0.27-0.336
		C1.233,10.698,1.224,10.135,1.224,9.571z"/>
	<path fill="#3390d3" d="M50.022,2.616c0,0.597,0,1.168,0,1.765c-1.019,0-2.021,0-3.062,0c0,2.522,0,5.021,0,7.545
		c-0.808,0-1.579,0-2.388,0c0-2.499,0-4.997,0-7.521c-1.04,0-2.042,0-3.073,0c0-0.604,0-1.185,0-1.788
		C44.326,2.616,47.16,2.616,50.022,2.616z"/>
</g>
<path fill="none" d="M35.639,4.287c0.584,0.035,1.119,0.043,1.646,0.104c0.833,0.097,0.959,0.786,0.851,1.399
	c-0.105,0.594-0.45,0.866-1.084,0.898c-0.453,0.024-0.908,0.005-1.413,0.005c0-0.405,0-0.797,0-1.187
	C35.639,5.127,35.639,4.746,35.639,4.287z"/>
<path fill="none" d="M25.868,8.486c0.417-1.205,0.828-2.395,1.279-3.696c0.445,1.294,0.855,2.486,1.272,3.696
	C27.571,8.486,26.748,8.486,25.868,8.486z"/>
<path fill="none" d="M114.703,7.12c-0.021,1.092-0.178,1.987-0.721,2.8c-0.973,1.456-3.133,1.502-4.184,0.42
	c-0.619-0.639-0.92-1.392-1.023-2.268c-0.127-1.081-0.053-2.118,0.447-3.102c0.814-1.604,2.741-1.954,4.082-1.041
	c0.813,0.556,1.204,1.433,1.315,2.416C114.656,6.652,114.686,6.959,114.703,7.12z"/>
<g>
	<path fill="#FFFFFF" d="M117.96,2.593c1.128,0,2.231-0.049,3.331,0.015c0.898,0.054,1.757,0.311,2.254,1.174
		c0.66,1.146,0.494,3.062-0.85,3.662c-0.092,0.042-0.187,0.081-0.295,0.127c0.533,0.336,0.929,0.763,1.203,1.302
		c0.068,0.136,0.16,0.261,0.229,0.396c0.427,0.854,0.85,1.707,1.297,2.61c-0.432,0-0.82,0.013-1.208-0.01
		c-0.08-0.005-0.179-0.125-0.226-0.216c-0.413-0.808-0.797-1.632-1.234-2.426c-0.188-0.341-0.441-0.668-0.738-0.914
		c-0.219-0.181-0.549-0.281-0.839-0.309c-0.532-0.047-1.073-0.014-1.649-0.014c0,1.302,0,2.576,0,3.869c-0.441,0-0.846,0-1.273,0
		C117.96,8.786,117.96,5.711,117.96,2.593z M119.248,6.983c0.635,0,1.25,0.049,1.854-0.019c0.354-0.039,0.737-0.193,1.02-0.412
		c0.547-0.426,0.556-1.077,0.466-1.695c-0.088-0.611-0.479-1.069-1.082-1.164c-0.733-0.113-1.489-0.09-2.256-0.126
		C119.248,4.733,119.248,5.833,119.248,6.983z"/>
	<g>
		<path fill="#FFFFFF" d="M83.923,7.266c-0.06,1.082-0.222,2.126-0.842,3.035c-0.662,0.97-1.558,1.574-2.754,1.732
			c-1.185,0.156-2.28,0.007-3.257-0.723c-0.815-0.609-1.312-1.419-1.561-2.409c-0.294-1.168-0.303-2.336,0.051-3.467
			c0.453-1.456,1.373-2.485,2.938-2.855c2.527-0.599,4.813,0.817,5.234,3.354C83.809,6.377,83.859,6.823,83.923,7.266z
			 M76.592,7.448c0.02,0.158,0.055,0.44,0.086,0.723c0.092,0.835,0.41,1.554,1.004,2.165c1.059,1.09,3.219,1.047,4.184-0.409
			c0.384-0.579,0.584-1.207,0.662-1.906c0.123-1.072,0.037-2.097-0.453-3.063c-0.979-1.933-3.661-1.983-4.778-0.294
			C76.756,5.478,76.63,6.382,76.592,7.448z"/>
		<g>
			<path fill="#FFFFFF" d="M103.947,11.88c-0.479,0-0.91-0.005-1.342,0.002c-0.184,0.003-0.258-0.051-0.306-0.252
				c-0.462-1.925-0.944-3.845-1.415-5.769c-0.154-0.636-0.293-1.275-0.502-1.912c-0.174,0.694-0.35,1.39-0.521,2.085
				c-0.42,1.706-0.834,3.414-1.26,5.118c-0.183,0.729-0.191,0.728-0.949,0.728c-0.252,0-0.504,0-0.797,0
				c-0.771-3.087-1.543-6.171-2.319-9.274c0.425,0,0.83,0,1.26,0c0.644,2.565,1.285,5.138,1.952,7.805
				c0.145-0.526,0.27-0.962,0.378-1.401c0.335-1.354,0.661-2.709,0.993-4.063c0.173-0.704,0.343-1.411,0.533-2.111
				c0.027-0.098,0.17-0.22,0.268-0.229c0.321-0.028,0.648-0.028,0.971,0c0.096,0.01,0.233,0.138,0.26,0.235
				c0.438,1.678,0.863,3.358,1.283,5.04c0.185,0.739,0.35,1.481,0.526,2.223c0.019,0.076,0.06,0.147,0.108,0.267
				c0.649-2.618,1.285-5.186,1.924-7.76c0.425,0,0.84,0,1.273,0C105.491,5.706,104.723,8.783,103.947,11.88z"/>
			<path fill="#FFFFFF" d="M91.59,10.219c0-2.528,0-5.057,0-7.604c0.424,0,0.826,0,1.26,0c0,3.063,0,6.14,0,9.266
				c-0.535,0-1.082,0.007-1.627-0.009c-0.072-0.002-0.166-0.111-0.209-0.192c-0.604-1.172-1.199-2.35-1.805-3.521
				c-0.673-1.307-1.354-2.608-2.08-4.009c0,2.632,0,5.16,0,7.711c-0.439,0-0.844,0-1.277,0c0-3.063,0-6.14,0-9.266
				c0.535,0,1.082-0.007,1.629,0.009c0.071,0.002,0.164,0.111,0.207,0.192c0.604,1.172,1.199,2.35,1.805,3.521
				c0.674,1.307,1.354,2.608,2.029,3.912C91.544,10.225,91.566,10.222,91.59,10.219z"/>
			<path fill="#FFFFFF" d="M116.008,7.066c-0.044,1.239-0.184,2.258-0.773,3.159c-0.668,1.021-1.575,1.644-2.811,1.809
				c-1.49,0.2-2.785-0.126-3.831-1.251c-0.622-0.67-0.94-1.484-1.088-2.363c-0.17-1.016-0.14-2.037,0.179-3.021
				c0.477-1.478,1.428-2.511,2.988-2.845c2.448-0.523,4.703,0.749,5.174,3.369C115.924,6.365,115.973,6.81,116.008,7.066z
				 M114.703,7.12c-0.018-0.161-0.047-0.469-0.082-0.773c-0.111-0.982-0.502-1.86-1.316-2.416c-1.34-0.913-3.267-0.563-4.082,1.041
				c-0.498,0.982-0.574,2.021-0.445,3.102c0.104,0.876,0.402,1.629,1.022,2.268c1.05,1.082,3.212,1.036,4.183-0.42
				C114.525,9.108,114.682,8.212,114.703,7.12z"/>
			<path fill="#FFFFFF" d="M128.093,11.863c-0.46,0-0.862,0-1.284,0c0-3.082,0-6.148,0-9.243c0.407,0,0.819,0,1.26,0
				c0,1.263,0,2.529,0,3.868c0.398-0.354,0.757-0.653,1.092-0.978c0.947-0.913,1.885-1.837,2.831-2.752
				c0.077-0.076,0.194-0.155,0.295-0.159c0.452-0.018,0.905-0.008,1.478-0.008c-1.558,1.494-3.041,2.918-4.554,4.368
				c1.64,1.639,3.258,3.257,4.921,4.919c-0.537,0-1.033,0.008-1.527-0.008c-0.09-0.003-0.188-0.093-0.26-0.163
				c-1.146-1.144-2.294-2.286-3.434-3.438c-0.264-0.266-0.5-0.559-0.816-0.914C128.093,8.922,128.093,10.378,128.093,11.863z"/>
			<path fill="#FFFFFF" d="M69.623,4.089c-0.679-0.202-1.338-0.456-2.021-0.586c-0.739-0.142-1.481-0.075-2.131,0.395
				c-0.466,0.337-0.568,0.815-0.521,1.342c0.052,0.571,0.443,0.877,0.947,1.016c0.643,0.177,1.305,0.281,1.951,0.447
				c0.789,0.201,1.536,0.501,1.979,1.247c0.795,1.337,0.39,3.458-1.543,3.942c-1.318,0.331-2.595,0.229-3.871-0.156
				c-0.697-0.211-0.695-0.219-0.695-0.934c0-0.168,0-0.336,0-0.547c0.337,0.144,0.654,0.271,0.966,0.413
				c0.725,0.326,1.488,0.467,2.275,0.413c0.615-0.042,1.245-0.149,1.638-0.688c0.601-0.825,0.385-2.031-0.823-2.394
				c-0.705-0.211-1.44-0.318-2.148-0.521c-0.636-0.181-1.234-0.445-1.625-1.039c-0.755-1.143-0.299-2.938,0.917-3.554
				c0.875-0.442,1.799-0.535,2.755-0.371c0.52,0.089,1.037,0.197,1.556,0.293c0.278,0.052,0.444,0.164,0.402,0.495
				C69.595,3.573,69.623,3.85,69.623,4.089z"/>
			<path fill="#FFFFFF" d="M134.854,10.309c0.655,0.227,1.287,0.479,1.938,0.658c0.779,0.217,1.566,0.178,2.332-0.105
				c0.593-0.22,0.932-0.792,0.915-1.527c-0.013-0.607-0.427-1.136-1.127-1.334c-0.709-0.201-1.44-0.318-2.149-0.521
				c-0.636-0.181-1.232-0.445-1.625-1.039c-0.755-1.143-0.299-2.938,0.918-3.554c0.873-0.443,1.799-0.535,2.754-0.371
				c0.521,0.089,1.037,0.197,1.557,0.293c0.277,0.052,0.443,0.164,0.4,0.495c-0.035,0.271-0.007,0.547-0.007,0.785
				c-0.68-0.202-1.339-0.456-2.021-0.586c-0.739-0.141-1.482-0.075-2.133,0.395c-0.465,0.337-0.566,0.815-0.52,1.342
				c0.053,0.571,0.443,0.877,0.946,1.016c0.643,0.177,1.306,0.281,1.95,0.447c0.789,0.201,1.537,0.501,1.979,1.247
				c0.795,1.338,0.39,3.457-1.543,3.942c-1.317,0.331-2.596,0.229-3.871-0.156c-0.696-0.211-0.694-0.219-0.694-0.934
				C134.854,10.634,134.854,10.466,134.854,10.309z"/>
			<path fill="#FFFFFF" d="M50.395,2.592c0.405,0,0.731-0.023,1.051,0.012c0.132,0.015,0.32,0.125,0.364,0.237
				c0.619,1.607,1.219,3.222,1.82,4.836c0.306,0.823,0.605,1.649,0.909,2.474c0.019,0.052,0.057,0.096,0.122,0.2
				c0.2-0.512,0.384-0.972,0.559-1.436c0.77-2.038,1.535-4.079,2.312-6.114c0.034-0.09,0.169-0.192,0.263-0.199
				c0.346-0.022,0.695-0.01,1.094-0.01c-0.23,0.615-0.448,1.204-0.671,1.79c-0.745,1.947-1.494,3.894-2.237,5.842
				c-0.167,0.438-0.316,0.883-0.479,1.322c-0.082,0.223-0.198,0.379-0.487,0.341c-0.248-0.033-0.507-0.035-0.754,0
				c-0.282,0.041-0.381-0.119-0.459-0.326c-0.922-2.443-1.84-4.89-2.763-7.334C50.836,3.69,50.618,3.159,50.395,2.592z"/>
			<path fill="#FFFFFF" d="M61.533,11.865c-0.425,0-0.829,0-1.251,0c0-3.091,0-6.163,0-9.256c0.419,0,0.822,0,1.251,0
				C61.533,5.685,61.533,8.758,61.533,11.865z"/>
			<path fill="#FFFFFF" d="M72.096,2.608c0.427,0,0.831,0,1.251,0c0,3.082,0,6.147,0,9.242c-0.402,0-0.813,0-1.251,0
				C72.096,8.786,72.096,5.712,72.096,2.608z"/>
			<path fill="none" d="M76.592,7.448c0.038-1.065,0.164-1.971,0.703-2.786c1.117-1.689,3.801-1.639,4.778,0.294
				c0.489,0.968,0.575,1.99,0.454,3.063c-0.079,0.699-0.279,1.327-0.664,1.906c-0.963,1.456-3.125,1.499-4.182,0.409
				c-0.595-0.611-0.912-1.33-1.004-2.165C76.646,7.889,76.611,7.606,76.592,7.448z"/>
			<path fill="none" d="M119.248,6.983c0-1.149,0-2.25,0-3.416c0.766,0.036,1.521,0.013,2.256,0.126
				c0.604,0.095,0.994,0.553,1.082,1.164c0.09,0.618,0.081,1.271-0.466,1.695c-0.281,0.219-0.666,0.373-1.021,0.412
				C120.498,7.031,119.883,6.983,119.248,6.983z"/>
		</g>
	</g>
</g>
</svg>
