<?xml version="1.0" encoding="utf-8"?>
<!-- Generator: Adobe Illustrator 16.0.0, SVG Export Plug-In . SVG Version: 6.00 Build 0)  -->
<!DOCTYPE svg PUBLIC "-//W3C//DTD SVG 1.1//EN" "http://www.w3.org/Graphics/SVG/1.1/DTD/svg11.dtd">
<svg version="1.1" id="Layer_1" xmlns="http://www.w3.org/2000/svg" xmlns:xlink="http://www.w3.org/1999/xlink" x="0px" y="0px"
	 width="699px" height="393px" viewBox="-107.5 277.5 699 393" enable-background="new -107.5 277.5 699 393" xml:space="preserve">
<g>
	<path fill="none" d="M-65.46,597.546c0-82.841,0-165.683,0-248.793c45.873,0,91.476,0,137.349,0c-0.54,0.27-0.809,0.54-1.349,0.54
		c-4.857,1.349-9.984,2.429-14.301,4.587c-13.223,6.476-23.207,16.73-30.762,28.873c-6.746,10.793-12.413,22.126-17.81,33.46
		c-4.857,10.793-7.286,22.127-7.555,34.27c0,4.048-0.27,7.825-0.81,11.873c-0.27,2.159-1.08,4.048-1.619,5.937
		c0.27,1.619,1.079,3.508,1.079,5.396c0,9.444-0.27,19.159-0.54,28.604c0,1.889-0.27,4.048-0.54,5.937
		c-1.889,8.904-3.238,17.81-5.937,26.444c-4.048,12.683-11.333,23.746-20.508,33.19c-8.635,8.905-18.889,16.19-30.222,21.317
		c-3.508,1.619-6.746,2.969-5.667,7.556C-64.651,597.276-65.19,597.546-65.46,597.546z"/>
	<path fill="#3390d3" d="M-65.46,597.546c0.27-0.27,0.54-0.54,0.54-0.54c-1.079-4.856,2.159-6.206,5.667-7.555
		c11.333-5.127,21.587-12.144,30.222-21.317c9.175-9.715,16.46-20.509,20.508-33.191c2.699-8.635,4.048-17.539,5.937-26.444
		c0.54-1.889,0.54-4.047,0.54-5.937c0.27-9.444,0.54-19.158,0.54-28.603c0-1.889-0.81-3.508-1.08-5.397
		c0.54-1.889,1.349-3.777,1.619-5.937c0.54-4.047,0.54-7.825,0.81-11.873c0.27-11.873,2.698-23.476,7.556-34.27
		c5.396-11.604,11.063-22.937,17.81-33.46c7.555-12.143,17.809-22.397,30.762-28.873c4.587-2.159,9.714-2.968,14.302-4.587
		c0.54-0.27,0.809-0.54,1.349-0.54c3.238,0,6.476,0,9.714,0c0.54,1.079,1.349,1.889,1.349,2.968c0,10.254,0,20.778,0,31.032
		c0,1.079-0.81,2.428-1.619,2.698c-12.953,5.667-23.476,14.031-32.651,24.825c-7.016,8.365-12.413,18.079-16.19,28.333
		c-3.778,10.524-5.397,21.048-5.127,32.111c0,8.096,0.54,16.19,0,24.286c-1.08,11.603-2.429,23.476-4.317,35.079
		c-1.08,7.016-2.429,14.032-4.857,20.508c-2.698,7.556-5.937,14.842-9.444,22.127c-4.317,9.175-10.524,17.54-17.27,24.825
		c-5.667,6.207-12.143,11.334-18.35,17c-2.698,2.429-5.396,4.318-8.095,6.477c-4.857,4.317-10.523,6.477-16.73,7.825
		c-0.27,0-0.54,0.271-1.08,0.54c-4.047,0-8.095,0-12.413,0C-65.46,619.133-65.46,608.34-65.46,597.546z"/>
	<path fill="#3390d3" d="M519.556,350.911c8.365,0,16.46,0,24.825,0c2.698,0,2.429,1.619,1.889,3.508
		c-3.238,10.254-6.746,20.778-9.983,31.032c-5.397,16.73-10.794,33.73-16.19,50.46c-5.127,16.19-10.255,32.381-15.651,48.571
		c-5.396,16.73-10.794,33.73-16.19,50.46c-5.396,16.73-10.794,33.461-16.19,50.191c-3.508,11.063-7.016,21.856-10.523,32.65
		c-3.238,1.35-3.778-0.81-4.317-2.969c-7.286-23.206-14.572-46.682-22.127-69.889c-4.857-15.381-9.715-30.492-14.572-45.873
		c-5.127-15.65-9.983-31.571-14.841-47.222c-5.127-16.461-10.254-32.651-15.381-49.111c-1.35-4.048-2.698-8.365-4.588-12.413
		c-2.428,7.286-4.856,14.841-7.285,22.126c-2.429,7.826-4.857,15.381-7.286,23.207c-7.825,24.285-15.381,48.841-22.937,73.127
		c-3.777,12.143-7.556,24.285-11.333,36.429c-6.206,19.968-12.683,39.937-18.889,59.904c-1.08,3.508-2.429,7.016-3.238,10.523
		c-0.54,2.429-1.889,2.699-4.048,2.159c-4.857-15.921-9.984-31.841-15.111-47.762c-5.127-16.19-10.254-32.111-15.651-48.032
		c-5.397-16.729-10.793-33.729-16.19-50.46s-10.793-33.73-16.19-50.46c-2.429-7.556-4.857-15.111-7.016-22.667
		c-0.27-0.81-0.54-1.619-0.27-2.429c4.317-13.222,8.365-26.444,12.683-39.667c0.27-0.54,0.54-0.81,1.079-1.349
		c7.556,22.937,14.841,45.603,22.127,68.539c4.857,14.842,9.445,29.413,14.302,44.254c5.397,16.73,10.793,33.461,16.46,50.191
		c0.81,2.158,0.539,4.587,3.238,5.666c1.889,0.54,2.698,0.271,3.508-1.349c2.158-5.667,4.587-11.604,6.476-17.271
		c6.746-20.777,13.492-41.825,20.238-62.603c5.937-18.08,11.604-36.429,17.54-54.508c4.048-12.143,7.825-24.286,11.873-36.429
		c11.333,0,22.127,0,33.19,0c4.048,12.683,8.365,25.635,12.412,38.587c5.397,16.46,10.524,32.651,15.651,49.111
		c5.937,18.349,11.873,36.968,17.81,55.317c2.429,7.286,4.317,14.571,6.746,21.857c0.81,2.429,2.158,4.856,3.508,7.016
		c0.27,0.54,1.349,1.079,1.619,0.81c1.349-0.81,3.238-1.35,3.508-2.429c2.968-8.365,5.667-16.46,8.365-24.825
		c2.698-7.825,5.127-15.921,7.556-23.746c8.095-25.365,16.46-50.46,24.556-75.825C509.841,381.673,514.698,366.292,519.556,350.911z
		"/>
	<path fill="#3390d3" d="M221.651,349.562c8.365,0,16.46,0,24.825,0c2.699,0,2.429,1.619,1.889,3.508
		c-3.238,10.254-6.746,20.778-9.984,31.032c-5.397,16.73-10.793,33.73-16.19,50.46c-5.127,16.19-10.254,32.381-15.651,48.572
		c-5.396,16.729-10.793,33.729-16.19,50.46s-10.793,33.46-16.19,50.19c-3.508,11.063-7.016,21.857-10.524,32.65
		c-3.238,1.35-3.778-0.81-4.317-2.968c-7.286-23.206-14.571-46.683-22.127-69.889c-4.857-15.381-9.714-30.492-14.571-45.873
		c-4.857-15.651-9.984-31.571-14.841-47.223c-5.127-16.46-9.984-32.921-15.651-49.111c-3.508-9.984-4.587-19.698-4.317-30.222
		c0.27-6.477,0-12.683,0-19.159c0-2.159,0.81-2.968,2.698-2.699c4.587,0,9.175,0,13.762,0c4.857,15.111,9.714,29.953,14.571,44.794
		c4.587,14.302,9.174,28.603,13.762,43.175c5.937,18.349,11.873,36.968,17.81,55.317c2.429,7.285,4.317,14.571,6.746,21.856
		c0.81,2.429,2.159,4.857,3.508,7.017c0.27,0.539,1.349,1.079,1.619,0.81c1.349-0.81,2.968-1.35,3.508-2.429
		c2.968-8.365,5.667-16.461,8.365-24.825c2.698-7.826,5.127-15.921,7.556-23.746c8.095-25.365,16.46-50.461,24.556-75.826
		C211.937,380.324,216.793,364.943,221.651,349.562z"/>
</g>
</svg>
